# xmcd
#
# Track frame offsets:
#	150
#	12496
#	21089
#	22993
#	56894
#	107359
#	198939
#	226299
#
# Disc length: 3191 seconds
#
# Revision: 1
# Processed by: cddbd v1.5.2PL0 Copyright (c) Steve Scherf et al.
# Submitted via: audiograbber 1.83.01
#
DISCID=5a0c7508
DTITLE=Grateful Dead - 69-04-15 The Music Box, Omaha NB
DYEAR=1900
DGENRE=
TTITLE0=Sitting On Top Of The World
TTITLE1=Cryptical Envelopment
TTITLE2=Drums
TTITLE3=The Other One
TTITLE4=Cryptical Envelopment
TTITLE5=Dark Star
TTITLE6=St Stephen
TTITLE7=The Eleven
EXTD=
EXTT0=
EXTT1=
EXTT2=
EXTT3=
EXTT4=
EXTT5=
EXTT6=
EXTT7=
PLAYORDER=
